<mxfile host="app.diagrams.net" agent="Mozilla/5.0 (Macintosh; Intel Mac OS X 10.15; rv:132.0) Gecko/20100101 Firefox/132.0" version="24.8.4">
  <diagram name="High Level Overview" id="n91Zhh8OkBto-IJQy9Xf">
    <mxGraphModel dx="2074" dy="729" grid="1" gridSize="10" guides="1" tooltips="1" connect="1" arrows="1" fold="1" page="1" pageScale="1" pageWidth="850" pageHeight="1100" math="0" shadow="0">
      <root>
        <mxCell id="0" />
        <mxCell id="1" parent="0" />
        <mxCell id="K7-odbcYmQNv5RkwU9Vm-10" style="edgeStyle=orthogonalEdgeStyle;rounded=0;orthogonalLoop=1;jettySize=auto;html=1;exitX=1;exitY=0.5;exitDx=0;exitDy=0;entryX=0;entryY=0.5;entryDx=0;entryDy=0;" edge="1" parent="1" source="K7-odbcYmQNv5RkwU9Vm-2" target="K7-odbcYmQNv5RkwU9Vm-8">
          <mxGeometry relative="1" as="geometry" />
        </mxCell>
        <mxCell id="K7-odbcYmQNv5RkwU9Vm-2" value="&lt;div&gt;Receiver Adapter&lt;br&gt;&lt;/div&gt;" style="whiteSpace=wrap;html=1;aspect=fixed;" vertex="1" parent="1">
          <mxGeometry x="200" y="510" width="80" height="80" as="geometry" />
        </mxCell>
        <mxCell id="K7-odbcYmQNv5RkwU9Vm-3" value="Disk" style="shape=cylinder3;whiteSpace=wrap;html=1;boundedLbl=1;backgroundOutline=1;size=15;" vertex="1" parent="1">
          <mxGeometry x="400" y="300" width="60" height="80" as="geometry" />
        </mxCell>
        <mxCell id="K7-odbcYmQNv5RkwU9Vm-28" style="edgeStyle=orthogonalEdgeStyle;rounded=0;orthogonalLoop=1;jettySize=auto;html=1;entryX=0;entryY=0.5;entryDx=0;entryDy=0;dashed=1;" edge="1" parent="1" source="K7-odbcYmQNv5RkwU9Vm-4" target="K7-odbcYmQNv5RkwU9Vm-25">
          <mxGeometry relative="1" as="geometry" />
        </mxCell>
        <mxCell id="K7-odbcYmQNv5RkwU9Vm-29" style="edgeStyle=orthogonalEdgeStyle;rounded=0;orthogonalLoop=1;jettySize=auto;html=1;entryX=0;entryY=0.5;entryDx=0;entryDy=0;dashed=1;" edge="1" parent="1" source="K7-odbcYmQNv5RkwU9Vm-4" target="K7-odbcYmQNv5RkwU9Vm-26">
          <mxGeometry relative="1" as="geometry" />
        </mxCell>
        <mxCell id="K7-odbcYmQNv5RkwU9Vm-4" value="Sender Adapter" style="whiteSpace=wrap;html=1;aspect=fixed;" vertex="1" parent="1">
          <mxGeometry x="570" y="510" width="80" height="80" as="geometry" />
        </mxCell>
        <mxCell id="K7-odbcYmQNv5RkwU9Vm-9" style="edgeStyle=orthogonalEdgeStyle;rounded=0;orthogonalLoop=1;jettySize=auto;html=1;entryX=0;entryY=0.5;entryDx=0;entryDy=0;" edge="1" parent="1" source="K7-odbcYmQNv5RkwU9Vm-8" target="K7-odbcYmQNv5RkwU9Vm-4">
          <mxGeometry relative="1" as="geometry" />
        </mxCell>
        <mxCell id="K7-odbcYmQNv5RkwU9Vm-8" value="Engine" style="shape=process;whiteSpace=wrap;html=1;backgroundOutline=1;" vertex="1" parent="1">
          <mxGeometry x="340" y="505" width="180" height="90" as="geometry" />
        </mxCell>
        <mxCell id="K7-odbcYmQNv5RkwU9Vm-11" style="edgeStyle=orthogonalEdgeStyle;rounded=0;orthogonalLoop=1;jettySize=auto;html=1;exitX=0.5;exitY=0;exitDx=0;exitDy=0;entryX=0.5;entryY=1;entryDx=0;entryDy=0;entryPerimeter=0;dashed=1;" edge="1" parent="1" source="K7-odbcYmQNv5RkwU9Vm-8" target="K7-odbcYmQNv5RkwU9Vm-3">
          <mxGeometry relative="1" as="geometry" />
        </mxCell>
        <mxCell id="K7-odbcYmQNv5RkwU9Vm-15" style="edgeStyle=orthogonalEdgeStyle;rounded=0;orthogonalLoop=1;jettySize=auto;html=1;entryX=0.5;entryY=0;entryDx=0;entryDy=0;dashed=1;" edge="1" parent="1" source="K7-odbcYmQNv5RkwU9Vm-12" target="K7-odbcYmQNv5RkwU9Vm-2">
          <mxGeometry relative="1" as="geometry" />
        </mxCell>
        <mxCell id="K7-odbcYmQNv5RkwU9Vm-12" value="HTTP" style="whiteSpace=wrap;html=1;aspect=fixed;" vertex="1" parent="1">
          <mxGeometry x="90" y="430" width="80" height="80" as="geometry" />
        </mxCell>
        <mxCell id="K7-odbcYmQNv5RkwU9Vm-16" style="edgeStyle=orthogonalEdgeStyle;rounded=0;orthogonalLoop=1;jettySize=auto;html=1;exitX=1;exitY=0.5;exitDx=0;exitDy=0;entryX=0;entryY=0.75;entryDx=0;entryDy=0;dashed=1;" edge="1" parent="1" source="K7-odbcYmQNv5RkwU9Vm-13" target="K7-odbcYmQNv5RkwU9Vm-2">
          <mxGeometry relative="1" as="geometry" />
        </mxCell>
        <mxCell id="K7-odbcYmQNv5RkwU9Vm-13" value="gRPC" style="whiteSpace=wrap;html=1;aspect=fixed;" vertex="1" parent="1">
          <mxGeometry x="90" y="530" width="80" height="80" as="geometry" />
        </mxCell>
        <mxCell id="K7-odbcYmQNv5RkwU9Vm-17" style="edgeStyle=orthogonalEdgeStyle;rounded=0;orthogonalLoop=1;jettySize=auto;html=1;exitX=1;exitY=0.5;exitDx=0;exitDy=0;entryX=0.5;entryY=1;entryDx=0;entryDy=0;dashed=1;" edge="1" parent="1" source="K7-odbcYmQNv5RkwU9Vm-14" target="K7-odbcYmQNv5RkwU9Vm-2">
          <mxGeometry relative="1" as="geometry" />
        </mxCell>
        <mxCell id="K7-odbcYmQNv5RkwU9Vm-14" value="GraphQL" style="whiteSpace=wrap;html=1;aspect=fixed;" vertex="1" parent="1">
          <mxGeometry x="90" y="630" width="80" height="80" as="geometry" />
        </mxCell>
        <mxCell id="K7-odbcYmQNv5RkwU9Vm-19" style="edgeStyle=orthogonalEdgeStyle;rounded=0;orthogonalLoop=1;jettySize=auto;html=1;dashed=1;" edge="1" parent="1" source="K7-odbcYmQNv5RkwU9Vm-18" target="K7-odbcYmQNv5RkwU9Vm-13">
          <mxGeometry relative="1" as="geometry" />
        </mxCell>
        <mxCell id="K7-odbcYmQNv5RkwU9Vm-21" style="edgeStyle=orthogonalEdgeStyle;rounded=0;orthogonalLoop=1;jettySize=auto;html=1;entryX=0;entryY=0.5;entryDx=0;entryDy=0;dashed=1;" edge="1" parent="1" source="K7-odbcYmQNv5RkwU9Vm-18" target="K7-odbcYmQNv5RkwU9Vm-14">
          <mxGeometry relative="1" as="geometry" />
        </mxCell>
        <mxCell id="K7-odbcYmQNv5RkwU9Vm-18" value="Auth Sender" style="shape=umlActor;verticalLabelPosition=bottom;verticalAlign=top;html=1;outlineConnect=0;" vertex="1" parent="1">
          <mxGeometry x="10" y="520" width="30" height="60" as="geometry" />
        </mxCell>
        <mxCell id="K7-odbcYmQNv5RkwU9Vm-20" style="edgeStyle=orthogonalEdgeStyle;rounded=0;orthogonalLoop=1;jettySize=auto;html=1;entryX=0.013;entryY=0.375;entryDx=0;entryDy=0;entryPerimeter=0;dashed=1;" edge="1" parent="1" source="K7-odbcYmQNv5RkwU9Vm-18" target="K7-odbcYmQNv5RkwU9Vm-12">
          <mxGeometry relative="1" as="geometry" />
        </mxCell>
        <mxCell id="K7-odbcYmQNv5RkwU9Vm-22" value="Auth Receiver" style="shape=umlActor;verticalLabelPosition=bottom;verticalAlign=top;html=1;outlineConnect=0;" vertex="1" parent="1">
          <mxGeometry x="800" y="520" width="30" height="60" as="geometry" />
        </mxCell>
        <mxCell id="K7-odbcYmQNv5RkwU9Vm-25" value="HTTP" style="whiteSpace=wrap;html=1;aspect=fixed;" vertex="1" parent="1">
          <mxGeometry x="690" y="425" width="80" height="80" as="geometry" />
        </mxCell>
        <mxCell id="K7-odbcYmQNv5RkwU9Vm-32" style="edgeStyle=orthogonalEdgeStyle;rounded=0;orthogonalLoop=1;jettySize=auto;html=1;exitX=1;exitY=0.5;exitDx=0;exitDy=0;dashed=1;" edge="1" parent="1" source="K7-odbcYmQNv5RkwU9Vm-26" target="K7-odbcYmQNv5RkwU9Vm-22">
          <mxGeometry relative="1" as="geometry" />
        </mxCell>
        <mxCell id="K7-odbcYmQNv5RkwU9Vm-26" value="gRPC" style="whiteSpace=wrap;html=1;aspect=fixed;" vertex="1" parent="1">
          <mxGeometry x="690" y="530" width="80" height="80" as="geometry" />
        </mxCell>
        <mxCell id="K7-odbcYmQNv5RkwU9Vm-33" style="edgeStyle=orthogonalEdgeStyle;rounded=0;orthogonalLoop=1;jettySize=auto;html=1;dashed=1;" edge="1" parent="1" source="K7-odbcYmQNv5RkwU9Vm-27" target="K7-odbcYmQNv5RkwU9Vm-22">
          <mxGeometry relative="1" as="geometry" />
        </mxCell>
        <mxCell id="K7-odbcYmQNv5RkwU9Vm-27" value="GraphQL" style="whiteSpace=wrap;html=1;aspect=fixed;" vertex="1" parent="1">
          <mxGeometry x="690" y="630" width="80" height="80" as="geometry" />
        </mxCell>
        <mxCell id="K7-odbcYmQNv5RkwU9Vm-30" style="edgeStyle=orthogonalEdgeStyle;rounded=0;orthogonalLoop=1;jettySize=auto;html=1;entryX=0;entryY=0.625;entryDx=0;entryDy=0;entryPerimeter=0;dashed=1;" edge="1" parent="1" source="K7-odbcYmQNv5RkwU9Vm-4" target="K7-odbcYmQNv5RkwU9Vm-27">
          <mxGeometry relative="1" as="geometry" />
        </mxCell>
        <mxCell id="K7-odbcYmQNv5RkwU9Vm-31" style="edgeStyle=orthogonalEdgeStyle;rounded=0;orthogonalLoop=1;jettySize=auto;html=1;entryX=0.5;entryY=0;entryDx=0;entryDy=0;entryPerimeter=0;dashed=1;" edge="1" parent="1" source="K7-odbcYmQNv5RkwU9Vm-25" target="K7-odbcYmQNv5RkwU9Vm-22">
          <mxGeometry relative="1" as="geometry" />
        </mxCell>
      </root>
    </mxGraphModel>
  </diagram>
</mxfile>
